<?xml version="1.0" encoding="UTF-8"?>
<svg width="90px" height="33px" viewBox="0 0 90 33" version="1.1" xmlns="http://www.w3.org/2000/svg" xmlns:xlink="http://www.w3.org/1999/xlink">
    <!-- Generator: Sketch 53.2 (72643) - https://sketchapp.com -->
    <title>Group 2</title>
    <desc>Created with Sketch.</desc>
    <g id="Page-1" stroke="none" stroke-width="1" fill="none" fill-rule="evenodd">
        <g id="Group-2" transform="translate(1.000000, -0.705476)">
            <g id="Group" transform="translate(0.000000, 2.705476)" fill-rule="nonzero">
                <path d="M6,0 C2.6862915,0 0,2.6862915 0,6 L0,24 C0,27.3137085 2.6862915,30 6,30 L76,30 C79.3137085,30 82,27.3137085 82,24 L82,6 C82,2.6862915 79.3137085,0 76,0 L6,0 Z" id="Rectangle" stroke="#D10024" stroke-width="2" fill="#FFFFFF"></path>
                <path d="M21.1918945,7.49902344 L17.0786133,7.49902344 L17.0786133,21.0195312 C17.0786133,21.798181 16.9051124,22.3758119 16.5581055,22.7524414 C16.2110985,23.1290709 15.7625353,23.3173828 15.2124023,23.3173828 C14.6538058,23.3173828 14.198895,23.126955 13.8476562,22.7460938 C13.4964175,22.3652325 13.3208008,21.7897174 13.3208008,21.0195312 L13.3208008,7.49902344 L9.20751953,7.49902344 C8.56428715,7.49902344 8.08610183,7.35726053 7.77294922,7.07373047 C7.45979661,6.79020041 7.30322266,6.41569243 7.30322266,5.95019531 C7.30322266,5.46777103 7.4661442,5.08691546 7.79199219,4.80761719 C8.11784017,4.52831892 8.5896779,4.38867188 9.20751953,4.38867188 L21.1918945,4.38867188 C21.8435905,4.38867188 22.3281234,4.53255064 22.6455078,4.8203125 C22.9628922,5.10807436 23.121582,5.48469819 23.121582,5.95019531 C23.121582,6.41569243 22.9607763,6.79020041 22.6391602,7.07373047 C22.317544,7.35726053 21.8351269,7.49902344 21.1918945,7.49902344 Z M34.3032227,23 L28.6157227,23 C27.794755,23 27.2086606,22.8159198 26.8574219,22.4477539 C26.5061831,22.079588 26.3305664,21.4934936 26.3305664,20.6894531 L26.3305664,6.69921875 C26.3305664,5.8782511 26.5104149,5.28792498 26.8701172,4.92822266 C27.2298195,4.56852034 27.8116822,4.38867188 28.6157227,4.38867188 L34.6459961,4.38867188 C35.5346724,4.38867188 36.304847,4.44368435 36.956543,4.55371094 C37.6082389,4.66373753 38.1922175,4.87532396 38.7084961,5.18847656 C39.1486025,5.45084767 39.5379215,5.78303835 39.8764648,6.18505859 C40.2150082,6.58707883 40.4731436,7.03141033 40.6508789,7.51806641 C40.8286142,8.00472249 40.9174805,8.5188775 40.9174805,9.06054688 C40.9174805,10.9225354 39.9865002,12.2851519 38.1245117,13.1484375 C40.5704875,13.9270872 41.793457,15.442046 41.793457,17.6933594 C41.793457,18.7343802 41.5268581,19.6717081 40.9936523,20.5053711 C40.4604466,21.3390341 39.7410527,21.9547506 38.8354492,22.3525391 C38.2683891,22.5895194 37.6167029,22.7566727 36.8803711,22.8540039 C36.1440393,22.9513351 35.2849984,23 34.3032227,23 Z M34.0239258,14.7353516 L30.1010742,14.7353516 L30.1010742,20.1689453 L34.1508789,20.1689453 C36.6984177,20.1689453 37.972168,19.2506602 37.972168,17.4140625 C37.972168,16.4746047 37.6420931,15.7932964 36.9819336,15.3701172 C36.321774,14.946938 35.3357813,14.7353516 34.0239258,14.7353516 Z M30.1010742,7.21972656 L30.1010742,12.03125 L33.5541992,12.03125 C34.493657,12.03125 35.2193985,11.9423837 35.7314453,11.7646484 C36.2434921,11.5869132 36.634927,11.2483749 36.9057617,10.7490234 C37.1173513,10.3935529 37.2231445,9.99577043 37.2231445,9.55566406 C37.2231445,8.61620624 36.888838,7.99202628 36.2202148,7.68310547 C35.5515917,7.37418465 34.5317451,7.21972656 33.1606445,7.21972656 L30.1010742,7.21972656 Z M55.4887695,17.1220703 L48.7094727,17.1220703 C48.7179362,17.9091836 48.8766261,18.6031871 49.1855469,19.2041016 C49.4944677,19.805016 49.9049454,20.257811 50.4169922,20.5625 C50.929039,20.867189 51.4939748,21.0195312 52.1118164,21.0195312 C52.526532,21.0195312 52.9052717,20.9708664 53.2480469,20.8735352 C53.590822,20.7762039 53.9230127,20.6238617 54.2446289,20.4165039 C54.5662451,20.2091461 54.8624661,19.9869804 55.1333008,19.75 C55.4041355,19.5130196 55.7553689,19.1914083 56.1870117,18.7851562 C56.364747,18.6328117 56.6186507,18.5566406 56.9487305,18.5566406 C57.304201,18.5566406 57.5919585,18.6539704 57.8120117,18.8486328 C58.0320649,19.0432952 58.1420898,19.3183576 58.1420898,19.6738281 C58.1420898,19.9869807 58.0193697,20.3530252 57.7739258,20.7719727 C57.5284818,21.1909201 57.1582056,21.5929343 56.6630859,21.9780273 C56.1679663,22.3631204 55.5459022,22.6826159 54.796875,22.9365234 C54.0478478,23.190431 53.1866911,23.3173828 52.2133789,23.3173828 C49.9874563,23.3173828 48.2566794,22.6826235 47.0209961,21.4130859 C45.7853128,20.1435483 45.1674805,18.4212348 45.1674805,16.2460938 C45.1674805,15.2220001 45.3198227,14.271977 45.6245117,13.3959961 C45.9292007,12.5200152 46.3735322,11.7688833 46.9575195,11.1425781 C47.5415068,10.5162729 48.2609007,10.0359717 49.1157227,9.70166016 C49.9705446,9.36734859 50.9184518,9.20019531 51.9594727,9.20019531 C53.3136461,9.20019531 54.4752556,9.48583699 55.4443359,10.0571289 C56.4134163,10.6284208 57.1391577,11.3668575 57.621582,12.2724609 C58.1040063,13.1780644 58.3452148,14.1005812 58.3452148,15.0400391 C58.3452148,15.9117882 58.0955429,16.476724 57.5961914,16.7348633 C57.09684,16.9930026 56.394373,17.1220703 55.4887695,17.1220703 Z M48.7094727,15.1542969 L54.9936523,15.1542969 C54.9090165,13.9693951 54.589521,13.082848 54.0351562,12.4946289 C53.4807915,11.9064098 52.7508183,11.6123047 51.8452148,11.6123047 C50.9819293,11.6123047 50.2731148,11.9106415 49.71875,12.5073242 C49.1643852,13.1040069 48.8279628,13.9863223 48.7094727,15.1542969 Z M71.9389648,17.1220703 L65.159668,17.1220703 C65.1681316,17.9091836 65.3268214,18.6031871 65.6357422,19.2041016 C65.944663,19.805016 66.3551407,20.257811 66.8671875,20.5625 C67.3792343,20.867189 67.9441701,21.0195312 68.5620117,21.0195312 C68.9767273,21.0195312 69.355467,20.9708664 69.6982422,20.8735352 C70.0410173,20.7762039 70.373208,20.6238617 70.6948242,20.4165039 C71.0164404,20.2091461 71.3126614,19.9869804 71.5834961,19.75 C71.8543308,19.5130196 72.2055642,19.1914083 72.637207,18.7851562 C72.8149423,18.6328117 73.068846,18.5566406 73.3989258,18.5566406 C73.7543963,18.5566406 74.0421538,18.6539704 74.262207,18.8486328 C74.4822602,19.0432952 74.5922852,19.3183576 74.5922852,19.6738281 C74.5922852,19.9869807 74.469565,20.3530252 74.2241211,20.7719727 C73.9786772,21.1909201 73.6084009,21.5929343 73.1132812,21.9780273 C72.6181616,22.3631204 71.9960975,22.6826159 71.2470703,22.9365234 C70.4980431,23.190431 69.6368864,23.3173828 68.6635742,23.3173828 C66.4376516,23.3173828 64.7068747,22.6826235 63.4711914,21.4130859 C62.2355081,20.1435483 61.6176758,18.4212348 61.6176758,16.2460938 C61.6176758,15.2220001 61.770018,14.271977 62.074707,13.3959961 C62.3793961,12.5200152 62.8237275,11.7688833 63.4077148,11.1425781 C63.9917021,10.5162729 64.711096,10.0359717 65.565918,9.70166016 C66.42074,9.36734859 67.3686471,9.20019531 68.409668,9.20019531 C69.7638414,9.20019531 70.9254509,9.48583699 71.8945312,10.0571289 C72.8636116,10.6284208 73.5893531,11.3668575 74.0717773,12.2724609 C74.5542016,13.1780644 74.7954102,14.1005812 74.7954102,15.0400391 C74.7954102,15.9117882 74.5457382,16.476724 74.0463867,16.7348633 C73.5470353,16.9930026 72.8445683,17.1220703 71.9389648,17.1220703 Z M65.159668,15.1542969 L71.4438477,15.1542969 C71.3592118,13.9693951 71.0397163,13.082848 70.4853516,12.4946289 C69.9309868,11.9064098 69.2010136,11.6123047 68.2954102,11.6123047 C67.4321246,11.6123047 66.7233101,11.9106415 66.1689453,12.5073242 C65.6145806,13.1040069 65.2781581,13.9863223 65.159668,15.1542969 Z" id="TBee" fill="#333654"></path>
            </g>
            <ellipse id="Oval" stroke="#2B2D40" fill="#FFBB00" transform="translate(75.271801, 6.483096) rotate(112.000000) translate(-75.271801, -6.483096) " cx="75.2718007" cy="6.48309559" rx="1.5" ry="4"></ellipse>
            <ellipse id="Oval" stroke="#2B2D40" fill="#FFBB00" transform="translate(81.967572, 4.500000) rotate(28.000000) translate(-81.967572, -4.500000) " cx="81.9675719" cy="4.5" rx="1.5" ry="3.5"></ellipse>
            <ellipse id="Oval" stroke="#2B2D42" fill="#FFBB00" transform="translate(84.259159, 10.755411) rotate(25.000000) translate(-84.259159, -10.755411) " cx="84.2591585" cy="10.7554108" rx="4" ry="1.5"></ellipse>
            <ellipse id="Oval" stroke="#2B2D42" fill="#FFBB00" transform="translate(77.299038, 12.919578) rotate(120.000000) translate(-77.299038, -12.919578) " cx="77.2990381" cy="12.9195777" rx="4" ry="1.5"></ellipse>
        </g>
    </g>
</svg>